<?xml version="1.0" encoding="utf-8"?><svg xmlns="http://www.w3.org/2000/svg" xmlns:xlink="http://www.w3.org/1999/xlink"><symbol fill="#151515" viewBox="0 0 118 23" id="1" xmlns="http://www.w3.org/2000/svg"><svg xmlns="http://www.w3.org/2000/svg" width="118" height="23"><path paint-order="stroke fill markers" fill-rule="evenodd" d="M3 3h17L10 20h9v4H2L12 8H3V3zm32 21c-6.075 0-11-4.925-11-11 0-.666.07-1.315.183-1.949l5.726 5.09c1.057 1.71 2.933 2.859 5.09 2.859a6 6 0 100-12c-2.243 0-4.175 1.246-5.205 3.07l-3.822-3.345C27.959 3.871 31.259 2 35 2c6.075 0 11 4.925 11 11s-4.925 11-11 11zm17 0V14l5 3v7h-5zm0-16l19 16V2h-5v11L52 2v6zm41-6H78v22h15v-4H83v-5h9v-4h-9V6h10V2zm26 22h-6l-5-6.875L103 24h-6l8-11-8-11h6l5 6.875L113 2h6l-8 11 8 11z"/></svg></symbol><symbol fill="none" viewBox="0 0 22 16" id="accept" xmlns="http://www.w3.org/2000/svg"><path d="M1 8l8.8 7L21 1" stroke="#fff" stroke-width="2" stroke-linecap="round" stroke-linejoin="round"/></symbol><symbol fill="none" viewBox="0 0 35 34" id="adv-deep" xmlns="http://www.w3.org/2000/svg"><path d="M17.25 32.333V1M22.295 27.18l-5.045 5.153-5.045-5.154M1 1h32.5M1 32.333h4.919M1 16.666h4.919M1 8.833h3.002M1 24.229h3.002M33.5 32.333h-4.919M33.5 16.666h-4.919M33.5 8.833h-3.003M33.5 24.229h-3.003" stroke="#fff" stroke-width="2" stroke-miterlimit="10" stroke-linecap="round" stroke-linejoin="round"/></symbol><symbol fill="none" viewBox="0 0 39 46" id="adv-exp" xmlns="http://www.w3.org/2000/svg"><path d="M36.128 1.505a1 1 0 00-1.36.312l-1.746 2.7a1 1 0 00-.16.544v3.905a1 1 0 01-.102.438l-5.632 11.538a1 1 0 01-.3.361l-7.612 5.71a1 1 0 00-.303 1.23l.649 1.36a1 1 0 01-.141 1.078l-2.24 2.634a1 1 0 01-.467.308l-3.524 1.085a1 1 0 00-.582.473l-2.371 4.304a1 1 0 01-.662.494l-7.282 1.596a1 1 0 00-.667 1.45l.355.662a1 1 0 00.73.515l4.923.755a1 1 0 00.539-.066l6.101-2.56a1 1 0 00.451-.376l1.609-2.468a1 1 0 00.153-.41l.263-1.91a1 1 0 01.99-.863h1.46a1 1 0 00.597-.198l4.787-3.56c.043-.033.084-.069.121-.107l4.865-5.026c.062-.064.132-.12.208-.165l1.733-1.029a1 1 0 00.376-1.323l-.152-.29a1 1 0 01.383-1.327l1.145-.668a.999.999 0 00.41-.458l1.526-3.437a1 1 0 00.085-.46l-.245-4.498a1 1 0 01.051-.375l1.445-4.272c.027-.081.044-.166.05-.251l.266-3.825a.999.999 0 01.11-.392l.608-1.17a1 1 0 00-.368-1.315l-1.073-.653z" stroke="#fff" stroke-width="2" stroke-miterlimit="10" stroke-linecap="round" stroke-linejoin="round"/></symbol><symbol fill="none" viewBox="0 0 38 44" id="adv-gidrolog" xmlns="http://www.w3.org/2000/svg"><path d="M4.639 21.788c0 1.595.27 2.853.757 4.283a2.418 2.418 0 00.986 4.626l.042-.002c.5 6.372 7.743 11.751 12.327 11.751 4.704 0 11.826-5.378 12.326-11.75h.042a2.419 2.419 0 00.986-4.625c.49-1.43.758-2.688.758-4.284" stroke="#fff" stroke-width="2" stroke-linecap="round" stroke-linejoin="round"/><path d="M9.074 22.987l-.348 4.022s-1.32-1.823-3.33-.939M28.468 22.917l.354 4.092s1.32-1.823 3.33-.939" stroke="#fff" stroke-width="2" stroke-miterlimit="10" stroke-linecap="round" stroke-linejoin="round"/><path d="M13.722 4.495c-5.367 1.5-8.672 5.79-9.757 11.13A2.974 2.974 0 001 18.591c0 1.63 1.259 2.418 2.965 2.965 15.243 5.37 29.57 0 29.57 0 1.63-.492 2.965-1.334 2.965-2.965a2.974 2.974 0 00-2.965-2.966c-1.083-5.34-4.333-9.63-9.699-11.13" stroke="#fff" stroke-width="2" stroke-miterlimit="10" stroke-linecap="round" stroke-linejoin="round"/><path d="M20.405 15.163h-3.25a3.432 3.432 0 01-3.433-3.433V4.433A3.432 3.432 0 0117.154 1h3.251a3.432 3.432 0 013.432 3.433v7.297a3.433 3.433 0 01-3.432 3.433z" stroke="#fff" stroke-width="2" stroke-miterlimit="10" stroke-linecap="round" stroke-linejoin="round"/><path d="M16.965 35.537h3.658" stroke="#fff" stroke-width="2" stroke-miterlimit="3.864" stroke-linecap="round" stroke-linejoin="round"/><path d="M21.406 23.996s-1.592.416-1.592 2.521c0 2.65 2.953 5.04 5.264 5.04 2.31 0 3.698-1.403 3.543-4.469-.154-3.066-2.619-3.092-2.619-3.092h-14.56s-2.465.026-2.62 3.092c-.154 3.066 1.234 4.47 3.544 4.47 2.312 0 5.264-2.392 5.264-5.04 0-2.105-1.592-2.522-1.592-2.522" stroke="#fff" stroke-width="2" stroke-miterlimit="10" stroke-linecap="round" stroke-linejoin="round"/></symbol><symbol fill="none" viewBox="0 0 40 31" id="adv-porodi" xmlns="http://www.w3.org/2000/svg"><path d="M10.823 8.966s.79-4.474 2.763-4.545c1.974-.07 4.428 2.345 5.28.995.854-1.35 2.4-1.918 5.547-2.273 3.146-.355 1.813-2.77 3.787-1.988 1.973.782 5.652 6.534 5.812 7.813M31.598 26.02c0 1.719 1.545 3.11 3.451 3.11 1.906 0 3.451-1.392 3.451-3.11 0-1.716-1.545-3.109-3.451-3.109-1.907 0-3.45 1.393-3.45 3.11z" stroke="#fff" stroke-width="2" stroke-miterlimit="10" stroke-linecap="round" stroke-linejoin="round"/><path d="M1 8.966h3.865l6.983 20.165h2.36l3.357-6.78" stroke="#fff" stroke-width="2" stroke-linecap="round" stroke-linejoin="round"/><path d="M8.023 18.085s20.898 14.662 29.27-6.635H5.727" stroke="#fff" stroke-width="2" stroke-miterlimit="10" stroke-linecap="round" stroke-linejoin="round"/></symbol><symbol fill="none" viewBox="0 0 50 49" id="adv-six" xmlns="http://www.w3.org/2000/svg"><path d="M40.8 15.44L25.28 6.48 9.76 15.44v17.922l15.52 8.96 15.52-8.96V15.44z" stroke="#fff" stroke-width="2" stroke-miterlimit="10" stroke-linecap="round" stroke-linejoin="round"/><path d="M35.867 6.065H14.694L4.107 24.4l10.587 18.337h21.173l10.586-18.337L35.867 6.065z" stroke="#fff" stroke-width="2" stroke-miterlimit="10" stroke-linecap="round" stroke-linejoin="round"/><path d="M14.453 16.86l7.001 16 7-16M32.453 16.86v16" stroke="#fff" stroke-width="2" stroke-miterlimit="10" stroke-linecap="round" stroke-linejoin="round"/></symbol><symbol fill="none" viewBox="0 0 37 35" id="adv-speed" xmlns="http://www.w3.org/2000/svg"><path d="M31.708 29.466a17.406 17.406 0 002.306-3.594 17.278 17.278 0 001.71-7.51c0-2.013-.36-3.937-.989-5.736C32.365 5.86 25.939 1 18.363 1 10.774 1 4.34 5.876 1.978 12.66A17.295 17.295 0 001 18.364c0 2.675.61 5.207 1.69 7.47a17.46 17.46 0 002.327 3.635" stroke="#fff" stroke-width="2" stroke-linecap="round" stroke-linejoin="round"/><path d="M25.027 31.967c0 .825-.668 1.493-1.493 1.493H13.192a1.493 1.493 0 01-1.493-1.493V29.03c0-.824.668-1.493 1.493-1.493h10.342c.825 0 1.493.669 1.493 1.493v2.938zM35.725 18.978H31.2M5.711 18.978H1M7.397 24.58l-4.071 2.35M26.993 3.3l-2.236 3.872M18.363 1v4.505M9.733 3.3l2.281 3.952M3.389 9.603l4.008 2.314M29.469 24.66l3.984 2.285M20.968 20.09a2.834 2.834 0 11-5.212-2.225 2.834 2.834 0 015.212 2.225zM20.742 17.44l10.027-6.473" stroke="#fff" stroke-width="2" stroke-miterlimit="10" stroke-linecap="round" stroke-linejoin="round"/></symbol><symbol fill="none" viewBox="0 0 25 15" id="arrow" xmlns="http://www.w3.org/2000/svg"><g opacity=".5" stroke-width="2" stroke-linecap="round" stroke-linejoin="round"><path d="M17.606 2l5.504 5.504-5.504 5.504M23 7.504H1"/></g></symbol><symbol fill="none" viewBox="0 0 21 11" id="burger" xmlns="http://www.w3.org/2000/svg"><path d="M20 1H1M20 10H1" stroke="#fff" stroke-width="2" stroke-linecap="round" stroke-linejoin="round"/></symbol><symbol fill="none" viewBox="0 0 12 9" id="check" xmlns="http://www.w3.org/2000/svg"><path d="M1 4.5L5.4 8 11 1" stroke-width="2" stroke-linecap="round" stroke-linejoin="round"/></symbol><symbol fill="none" viewBox="0 0 15 15" id="close" xmlns="http://www.w3.org/2000/svg"><path d="M1 1l13 13M14 1L1 14" stroke-width="2" stroke-linecap="round" stroke-linejoin="round"/></symbol><symbol fill="none" viewBox="0 0 11 12" id="close-bold" xmlns="http://www.w3.org/2000/svg"><path d="M1 1.5l9 9M10 1.5l-9 9" stroke-width="2" stroke-linecap="round" stroke-linejoin="round"/></symbol><symbol fill="none" viewBox="0 0 28 28" id="cost" xmlns="http://www.w3.org/2000/svg"><path d="M27 14c0-7.18-5.822-13-13-13C6.82 1 1 6.82 1 14s5.82 13 13 13c7.178 0 13-5.82 13-13z" stroke-width="2" stroke-miterlimit="10" stroke-linecap="round" stroke-linejoin="round"/><path d="M10.75 20.933V8.222h4.55a3.178 3.178 0 010 6.356H7.933M7.933 18.333H14" stroke-width="2" stroke-miterlimit="10" stroke-linecap="round" stroke-linejoin="round"/></symbol><symbol fill="none" viewBox="0 0 24 28" id="deep" xmlns="http://www.w3.org/2000/svg"><path d="M15.3 17.85c4.415.572 7.7 2.447 7.7 4.4 0 2.429-4.925 4.4-11 4.4-6.077 0-11-1.971-11-4.4 0-1.953 3.283-3.828 7.7-4.4M11.998 1.35a4.4 4.4 0 10.002 8.8 4.4 4.4 0 10-.002-8.8zM12 22.25v-12.1" stroke-width="2" stroke-miterlimit="10" stroke-linecap="round" stroke-linejoin="round"/></symbol><symbol fill="none" viewBox="0 0 21 21" id="headphone" xmlns="http://www.w3.org/2000/svg"><path d="M4.455 15.682a.866.866 0 01-.864.864H1.864A.866.866 0 011 15.681v-3.455c0-.475.389-.863.864-.863H3.59c.475 0 .864.388.864.863v3.455zM1 12.227V10.5M1 10.5C1 5.258 5.258 1 10.5 1c5.25 0 9.5 4.258 9.5 9.5M16.546 15.682c0 .475.388.864.863.864h1.727a.866.866 0 00.864-.864v-3.455a.866.866 0 00-.864-.863H17.41a.866.866 0 00-.863.863v3.455zM20 12.227V10.5M11.364 19.136H9.636V20h1.728v-.864z" stroke-width="2" stroke-miterlimit="10" stroke-linecap="round" stroke-linejoin="round"/><path d="M20 11.14v6.27L13.954 20H11.13" stroke-width="2" stroke-miterlimit="10" stroke-linecap="round" stroke-linejoin="round"/></symbol><symbol fill="none" viewBox="0 0 21 21" id="headphone-white" xmlns="http://www.w3.org/2000/svg"><path d="M4.455 15.682a.866.866 0 01-.864.864H1.864A.866.866 0 011 15.681v-3.455c0-.475.389-.863.864-.863H3.59c.475 0 .864.388.864.863v3.455zM1 12.227V10.5M1 10.5C1 5.258 5.258 1 10.5 1c5.25 0 9.5 4.258 9.5 9.5M16.545 15.682c0 .475.389.864.864.864h1.727a.866.866 0 00.864-.864v-3.455a.866.866 0 00-.864-.863H17.41a.866.866 0 00-.864.863v3.455zM20 12.227V10.5M11.364 19.136H9.636V20h1.728v-.864z" stroke="#fff" stroke-width="2" stroke-miterlimit="10" stroke-linecap="round" stroke-linejoin="round"/><path d="M20 11.14v6.27L13.955 20H11.13" stroke="#fff" stroke-width="2" stroke-miterlimit="10" stroke-linecap="round" stroke-linejoin="round"/></symbol><symbol fill="none" viewBox="0 0 25 40" id="lightning" xmlns="http://www.w3.org/2000/svg"><path d="M8.833 38.865l14.975-21.018c.411-.595.14-.8-.605-.8h-7.067c-.744 0-1.255-.71-1.133-1.416l2.429-14.4" stroke="#FF003D" stroke-width="2" stroke-miterlimit="10" stroke-linecap="round" stroke-linejoin="round"/><path d="M17.432 1.152L1.286 21.694c-.453.57-.213 1.093.532 1.093h7.82c.745 0 1.309.382 1.25 1.097L8.832 38.945" stroke="#FF003D" stroke-width="2" stroke-miterlimit="10" stroke-linecap="round" stroke-linejoin="round"/></symbol><symbol fill="none" viewBox="0 0 26 39" id="lightning-white" xmlns="http://www.w3.org/2000/svg"><path d="M9.462 37.188L23.83 17.02c.395-.571.135-.768-.581-.768h-6.78c-.715 0-1.205-.681-1.088-1.358l2.33-13.818" stroke="#fff" stroke-width="2" stroke-miterlimit="10" stroke-linecap="round" stroke-linejoin="round"/><path d="M17.712 1L2.22 20.71c-.435.547-.204 1.05.51 1.05h7.503c.715 0 1.257.367 1.2 1.053L9.462 37.264" stroke="#fff" stroke-width="2" stroke-miterlimit="10" stroke-linecap="round" stroke-linejoin="round"/></symbol><symbol fill="none" viewBox="0 0 143 57" id="logo" xmlns="http://www.w3.org/2000/svg"><path d="M18.064 22.58a1 1 0 001 1h8.117a1 1 0 011 1v2.284a.945.945 0 01-.46.824c-1.955 1.133-4.179 1.525-6.837 1.525-7.137 0-11.62-3.818-11.62-10.608.007-6.784 4.483-10.609 11.62-10.609 2.634 0 4.842.38 6.784 1.493.321.185.716.204 1.04.026l6.425-3.523c.592-.325.697-1.132.168-1.553C31.937 1.762 26.882 0 20.427 0 8.01 0 .014 7.185 0 18.598v.027c.007 11.413 8.01 18.598 20.427 18.598 6.923 0 12.24-2.03 15.588-5.044a.964.964 0 00.314-.72V17.09a1 1 0 00-1-1H19.064a1 1 0 00-1 1v5.49zM64.712 31.212a1 1 0 00-.913-.592H50.801a1 1 0 00-.913.591l-2.083 4.658a1 1 0 01-.913.592h-7.497a1 1 0 01-.92-1.392L52.907 1.245a1 1 0 01.92-.607h6.953a1 1 0 01.92.607L76.13 35.068a1 1 0 01-.92 1.393h-7.503a1 1 0 01-.913-.592l-2.083-4.657zm-11.371-9.046a1 1 0 00.934 1.358h6.105a1 1 0 00.935-1.354l-3.034-8.012c-.325-.86-1.54-.862-1.869-.004l-3.071 8.012zM100.624 36.462v-.003l-6.303-9.202a.473.473 0 00-.39-.206H89.7a1 1 0 00-1 1v7.41a1 1 0 01-1 1h-6.807a1 1 0 01-1-1V1.686a1 1 0 011-1h13.793c9.916 0 15.244 4.677 15.244 13.186 0 5.196-2.017 8.791-5.662 10.911-.545.317-.732 1.038-.36 1.546l6.263 8.548a1 1 0 01-.807 1.59h-8.734c-.003 0-.006-.002-.006-.005zM88.7 19.7h5.134c4.878 0 6.846-2.418 6.846-5.335 0-3.977-1.864-6.042-6.59-6.042h-4.384a1 1 0 00-1 1v10.37a.007.007 0 01-.007.007zM141.802.63h-28.745a1 1 0 00-1 1v6.253a1 1 0 001 1h28.745a1 1 0 001-1V1.631a1 1 0 00-1-1z" fill="#37455C"/><path d="M132.003 33.235a1 1 0 001.548-.837v-3.22a.999.999 0 00-.451-.836l-6.241-4.092a1 1 0 01-.452-.836v-2.799a1 1 0 011.549-.836l4.047 2.654a1 1 0 001.548-.836V8.857a1 1 0 00-1-1h-10.146a1 1 0 00-1 1v16.885c0 .337.169.651.451.836l10.147 6.657zM122.953 32.973a1 1 0 00-1.548.836v3.387c0 .337.169.651.451.836l6.317 4.147a1 1 0 01.452.836v2.792a1 1 0 01-1.548.837l-4.124-2.703a1 1 0 00-1.548.836v5.502a1 1 0 00.318.732l5.07 4.728a1 1 0 001.364 0l5.076-4.728a1 1 0 00.318-.732v-9.814a.999.999 0 00-.451-.836l-10.147-6.656z" fill="#37455C"/></symbol><symbol fill="none" viewBox="0 0 117 29" id="logo-megamir" xmlns="http://www.w3.org/2000/svg"><path d="M7.5 14.441c0-1.411-.176-2.382-.53-3-.352-.617-.97-.882-1.94-.882-.354 0-.706 0-1.148.088-.44.089-.706.089-.882.089v10.676H0V8.618a11.763 11.763 0 012.294-.441 16.5 16.5 0 013-.265c.882 0 1.677.088 2.206.353.618.265 1.059.53 1.412.97.176-.176.44-.264.706-.44.264-.177.617-.265.97-.442.353-.088.706-.264 1.147-.353.353-.088.794-.088 1.236-.088 1.058 0 1.852.177 2.558.441.706.265 1.148.706 1.589 1.236.353.529.617 1.147.794 1.94.176.707.176 1.589.176 2.471v7.412H15v-6.97c0-1.412-.177-2.383-.53-3-.352-.618-.97-.883-1.94-.883-.53 0-.971.088-1.412.265-.441.176-.795.353-.97.441.175.441.264.882.264 1.324.176.44.176.97.176 1.5v7.323H7.5v-6.97zM18.882 14.883c0-1.147.177-2.206.53-3.088.353-.883.794-1.588 1.411-2.206.53-.618 1.236-1.059 1.942-1.324.706-.264 1.5-.44 2.294-.44 1.853 0 3.264.529 4.235 1.676 1.059 1.147 1.5 2.823 1.5 5.03v1.058h-8.735c.088 1.059.44 1.853 1.147 2.47.706.618 1.588.883 2.912.883.705 0 1.411-.088 2.029-.177.618-.176 1.059-.264 1.412-.44l.44 2.47a6.082 6.082 0 01-.705.264c-.265.089-.618.177-.97.265a5.204 5.204 0 01-1.236.177c-.441.088-.882.088-1.323.088-1.147 0-2.206-.176-3-.53-.883-.352-1.589-.794-2.118-1.411-.53-.618-.97-1.324-1.235-2.206-.441-.706-.53-1.588-.53-2.559zm8.824-1.412c0-.44-.088-.794-.177-1.235a2.103 2.103 0 00-.53-.97c-.264-.265-.528-.53-.793-.618a2.443 2.443 0 00-1.147-.265c-.441 0-.883.088-1.236.265-.352.176-.617.44-.882.706a2.103 2.103 0 00-.53.97 2.442 2.442 0 00-.264 1.147h5.559zM42.882 20c0 2.118-.53 3.618-1.588 4.589-1.059.97-2.735 1.5-4.941 1.5-.794 0-1.588-.089-2.382-.177a37.09 37.09 0 01-2.118-.53l.53-2.558c.529.176 1.146.353 1.764.53.706.176 1.412.176 2.118.176 1.235 0 2.117-.265 2.647-.794.53-.53.794-1.236.794-2.206V20c-.265.177-.706.265-1.235.442a5.136 5.136 0 01-1.677.264c-.882 0-1.588-.176-2.294-.44a5.099 5.099 0 01-1.765-1.148c-.53-.53-.882-1.147-1.147-1.941a8.46 8.46 0 01-.44-2.735c0-.971.175-1.853.44-2.648.265-.794.706-1.5 1.324-2.029.53-.53 1.235-1.059 2.03-1.323.793-.353 1.764-.442 2.734-.442 1.148-.088 2.03 0 2.912.089.883.176 1.677.353 2.294.44V20zm-8.47-5.558c0 1.323.264 2.206.882 2.823.53.618 1.324.883 2.206.883.53 0 .97-.089 1.412-.177.44-.177.794-.265 1.059-.441v-6.883c-.177-.088-.53-.088-.794-.176-.353 0-.706-.088-1.236-.088-1.147 0-1.941.353-2.559 1.059-.706.794-.97 1.764-.97 3zM48.882 7.824c.97 0 1.853.088 2.56.353a4.555 4.555 0 011.676 1.059c.44.441.706.97.882 1.676.176.618.265 1.324.265 2.118v8.03c-.441.088-1.147.264-2.118.353-.97.176-2.03.176-3.265.176-.794 0-1.5-.088-2.206-.265-.617-.176-1.235-.353-1.676-.706a3.906 3.906 0 01-1.059-1.323c-.265-.53-.353-1.236-.353-2.03 0-.794.177-1.411.441-1.94.265-.53.706-.971 1.236-1.236.53-.353 1.059-.53 1.764-.706.706-.176 1.324-.176 2.118-.176.353 0 .706 0 1.059.088.353 0 .794.088 1.147.176v-.44c0-.354 0-.707-.088-.972-.089-.352-.265-.617-.441-.882-.177-.264-.53-.441-.795-.53-.353-.176-.794-.176-1.323-.176-.706 0-1.324.088-1.941.177-.618.088-1.06.176-1.412.353L45 8.53c.353-.177.97-.266 1.676-.442.618-.177 1.412-.265 2.206-.265zm.265 11.383c.97 0 1.677-.089 2.118-.177v-3.353c-.177-.088-.441-.088-.706-.176-.353-.088-.706-.088-1.059-.088s-.706 0-1.059.088-.617.176-.97.264c-.265.177-.53.353-.706.53a1.49 1.49 0 00-.265.882c0 .706.265 1.236.706 1.5.53.441 1.147.53 1.941.53zM63.53 14.441c0-1.411-.177-2.382-.53-3-.353-.617-.97-.882-1.941-.882-.353 0-.706 0-1.147.088-.442.089-.706.089-.883.089v10.676h-3.088V8.618a11.762 11.762 0 012.294-.441 16.5 16.5 0 013-.265c.882 0 1.677.088 2.206.353.618.265 1.059.53 1.412.97.176-.176.44-.264.706-.44.264-.177.617-.265.97-.442.353-.088.706-.264 1.147-.353.353-.088.794-.088 1.236-.088 1.058 0 1.852.177 2.558.441.706.265 1.148.706 1.589 1.236.353.529.617 1.147.794 1.94.176.707.264 1.5.264 2.383v7.412H71.03v-6.97c0-1.412-.176-2.383-.53-3-.352-.618-.97-.883-1.94-.883-.53 0-.971.088-1.412.265-.441.176-.794.353-.97.44.087.442.264.883.264 1.324.088.441.088.97.088 1.5v7.324h-3V14.44zM78.97 4.824c0 .53-.176 1.059-.529 1.324-.353.352-.794.529-1.323.529-.53 0-.971-.177-1.324-.53-.353-.352-.53-.794-.53-1.323 0-.618.177-1.059.53-1.412.353-.353.794-.53 1.324-.53.529 0 .97.177 1.323.53.353.353.53.794.53 1.412zM78.706 8.177h-3.088v13.235h3.088V8.177zM87.53 10.824c-.266-.088-.354-.088-.795-.177a7.917 7.917 0 00-1.588-.176c-.353 0-.706 0-1.059.088s-.618.088-.794.177v10.588h-3V8.794c.618-.176 1.323-.44 2.206-.617a14.872 14.872 0 012.912-.265h.705c.265 0 .53.088.794.088.265 0 .53.089.795.177.264.088.44.088.617.176l-.794 2.47zM99.441 6.236a.79.79 0 00-.794-.795.79.79 0 00-.794.795.79.79 0 00.794.794.79.79 0 00.794-.794z" fill="#fff"/><path d="M102.794.677c-7.764 0-14.117 6.353-14.117 14.117 0 4.677 2.294 8.912 5.911 11.471l3.794-3.706V8.265c0-.441-.176-.618-.44-.794a1.408 1.408 0 01-.707-1.235c0-.795.706-1.5 1.5-1.5s1.5.705 1.5 1.5c0 .529-.264.97-.706 1.235-.264.176-.44.353-.44.706V22.736l-3.883 3.794c2.206 1.412 4.853 2.294 7.676 2.294 7.765 0 14.118-6.353 14.118-14.118-.088-7.676-6.441-14.03-14.206-14.03zm-5.117 8.912v11.647h-.706V9.589h.706zm2.647 11.647h-.618V9.589h.706v11.647h-.088zm8.558 0a5.685 5.685 0 01-1.764.264c-.794 0-1.412-.088-1.941-.264a2.631 2.631 0 01-1.236-.883c-.353-.44-.529-.882-.617-1.5-.089-.617-.177-1.235-.177-2.03v-10.5l2.118-.352v3.618h4.412v1.764h-4.412v5.383c0 .617.088 1.058.176 1.411s.265.706.441.883c.177.176.442.353.706.44.265.09.618.177.971.177.618 0 1.147-.088 1.5-.176.353-.177.618-.265.794-.265l.441 1.765c-.529-.088-.882.088-1.412.265z" fill="#fff"/></symbol><symbol fill="none" viewBox="0 0 193 76" id="logo-white" xmlns="http://www.w3.org/2000/svg"><path d="M24.352 30.788a1 1 0 001 1h11.639a1 1 0 011 1v3.616a.959.959 0 01-.459.827c-2.674 1.6-5.721 2.151-9.378 2.151-9.621 0-15.665-5.146-15.665-14.3.01-9.146 6.044-14.302 15.665-14.302 3.634 0 6.665.536 9.326 2.119.319.189.714.208 1.038.03l9.261-5.08c.593-.325.699-1.132.18-1.564C43.427 2.507 36.478 0 27.537 0 10.798 0 .018 9.687 0 25.072v.038c.01 15.384 10.798 25.07 27.538 25.07 9.41 0 16.618-2.782 21.125-6.9a.972.972 0 00.313-.72V22.69a1 1 0 00-1-1H25.353a1 1 0 00-1 1v8.098zM87.147 41.87a1 1 0 00-.913-.591H68.26a1 1 0 00-.913.591l-2.993 6.692a1 1 0 01-.913.591H52.582a1 1 0 01-.92-1.392L71.415 1.467a1 1 0 01.92-.608h9.833a1 1 0 01.92.608L102.84 47.76a1 1 0 01-.92 1.392H91.052a1 1 0 01-.913-.591l-2.992-6.691zM71.728 30.355a1 1 0 00.934 1.358h9.241a1 1 0 00.935-1.354l-4.592-12.127c-.325-.86-1.54-.862-1.869-.004l-4.649 12.127zM135.653 49.155l-.001-.004-8.496-12.406a.638.638 0 00-.526-.278h-6.053a1 1 0 00-1 1v10.686a1 1 0 01-1 1h-9.873a1 1 0 01-1-1V1.923a1 1 0 011-1h18.944c13.367 0 20.55 6.306 20.55 17.777 0 7.179-2.856 12.09-8.002 14.919-.553.303-.739 1.024-.367 1.533l9.1 12.419a1 1 0 01-.807 1.59H135.66a.007.007 0 01-.007-.006zm-16.076-22.599h6.922c6.576 0 9.229-3.26 9.229-7.193 0-5.361-2.513-8.145-8.884-8.145h-6.258a1 1 0 00-1 1v14.329a.01.01 0 01-.009.01zM191.513.85h-39.447a1 1 0 00-1 1v9.126a1 1 0 001 1h39.447a1 1 0 001-1V1.851a1 1 0 00-1-1z" fill="#fff"/><path d="M178.494 45.158a1 1 0 001.548-.837v-5.174c0-.337-.17-.651-.451-.836l-8.728-5.722a1 1 0 01-.452-.837v-4.605a1 1 0 011.549-.836l6.534 4.284a1 1 0 001.548-.836V11.593a1 1 0 00-1-1h-14.375a1 1 0 00-1 1V34.89a1 1 0 00.452.836l14.375 9.43zM165.216 44.098a1 1 0 00-1.549.836v5.399c0 .337.17.65.451.836l8.831 5.797a1 1 0 01.452.836v4.596a1 1 0 01-1.549.836l-6.637-4.35a1 1 0 00-1.548.836v8.214a1 1 0 00.318.731l7.183 6.7a1 1 0 001.364 0l7.192-6.7a1 1 0 00.318-.731v-13.57c0-.337-.17-.65-.451-.836l-14.375-9.43z" fill="#fff"/></symbol><symbol fill="none" viewBox="0 0 14 22" id="phone" xmlns="http://www.w3.org/2000/svg"><path d="M13 19.333C13 20.25 12.229 21 11.286 21H2.715C1.772 21 1 20.25 1 19.333V2.667C1 1.75 1.772 1 2.715 1h8.571C12.23 1 13 1.75 13 2.667v16.666zM5.636 5H8.91" stroke="#fff" stroke-width="2" stroke-miterlimit="10" stroke-linecap="round" stroke-linejoin="round"/><path d="M7 18.09A.545.545 0 107 17a.545.545 0 000 1.09z" stroke="#fff" stroke-width="2" stroke-miterlimit="10" stroke-linecap="round" stroke-linejoin="round"/></symbol><symbol fill="none" viewBox="0 0 36 36" id="prices-bank" xmlns="http://www.w3.org/2000/svg"><path d="M18 29.865v-13.53M11.348 29.865v-13.53M4.696 29.865v-13.53M24.652 29.865v-13.53M31.304 29.865v-13.53M35 15.783H1L18.024 1 35 15.783zM35 30.565H1V35h34v-4.435z" stroke="#005AFF" stroke-width="2" stroke-miterlimit="10" stroke-linecap="round" stroke-linejoin="round"/></symbol><symbol fill="none" viewBox="0 0 8 6" id="prices-card-check" xmlns="http://www.w3.org/2000/svg"><path d="M1 3l2.64 2L7 1" stroke-linecap="round" stroke-linejoin="round"/></symbol><symbol fill="none" viewBox="0 0 7 7" id="prices-card-close" xmlns="http://www.w3.org/2000/svg"><path d="M1 1l5 5M6 1L1 6" stroke-linecap="round" stroke-linejoin="round"/></symbol><symbol fill="none" viewBox="0 0 36 34" id="prices-card-icon-1" xmlns="http://www.w3.org/2000/svg"><path d="M34.259 29.135c0 2.066-7.445 3.74-16.63 3.74C8.446 32.874 1 31.2 1 29.134" stroke="#37455C" stroke-width="2" stroke-miterlimit="10" stroke-linecap="round" stroke-linejoin="round"/><path d="M34.259 1.374C34.259-.693 1 6.39 1 8.457v20.678M34.259 1.373v27.762M1 8.456c0 4.513 33.259-.593 33.259-7.083M5.581 26.454v-4.2M11.606 22.68v-4.2M11.606 27.578v-1.24M23.601 27.578v-1.24M23.601 22.68v-4.2M29.574 26.454v-4.2M17.63 26.454v-4.2" stroke="#37455C" stroke-width="2" stroke-miterlimit="10" stroke-linecap="round" stroke-linejoin="round"/></symbol><symbol fill="none" viewBox="0 0 36 49" id="prices-card-icon-2" xmlns="http://www.w3.org/2000/svg"><path d="M35 29.135c0 2.066-7.445 3.74-16.63 3.74-9.184 0-16.629-1.674-16.629-3.74" stroke="#37455C" stroke-width="2" stroke-miterlimit="10" stroke-linecap="round" stroke-linejoin="round"/><path d="M35 1.374C35-.693 1.741 6.39 1.741 8.457v20.678M35 1.373v27.762M1.741 8.456C1.741 12.97 35 7.863 35 1.373M31.808 44.09c0 1.669-6.016 3.022-13.437 3.022-7.421 0-13.437-1.353-13.437-3.022M4.934 31.338V44.09M31.808 31.332V44.09M8.636 42.023V38.63M13.503 38.972v-3.394M13.503 42.93v-1.002M23.196 42.93v-1.002M23.196 38.972v-3.394M28.02 42.023V38.63M18.37 42.023V38.63" stroke="#37455C" stroke-width="2" stroke-miterlimit="10" stroke-linecap="round" stroke-linejoin="round"/></symbol><symbol fill="none" viewBox="0 0 48 32" id="prices-rub" xmlns="http://www.w3.org/2000/svg"><path d="M31 16c0-8.284-6.718-15-15.001-15C7.715 1 1 7.716 1 16c0 8.285 6.715 15 14.999 15C24.282 31 31 24.285 31 16z" stroke="#005AFF" stroke-width="2" stroke-miterlimit="10" stroke-linecap="round" stroke-linejoin="round"/><path d="M28.004 30.462a14.99 14.99 0 003.995.538C40.282 31 47 24.285 47 16c0-8.284-6.718-15-15.001-15-1.384 0-2.727.188-4 .539" stroke="#005AFF" stroke-width="2" stroke-miterlimit="10" stroke-linecap="round" stroke-linejoin="round"/><path d="M20.004 30.462a14.99 14.99 0 003.995.538C32.282 31 39 24.285 39 16c0-8.284-6.718-15-15.001-15-1.384 0-2.727.188-4 .539" stroke="#005AFF" stroke-width="2" stroke-miterlimit="10" stroke-linecap="round" stroke-linejoin="round"/><path d="M12.25 24V9.333h5.25a3.667 3.667 0 010 7.334H9M9 21h7" stroke="#005AFF" stroke-width="2" stroke-miterlimit="10" stroke-linecap="round" stroke-linejoin="round"/></symbol><symbol fill="none" viewBox="0 0 15 15" id="search" xmlns="http://www.w3.org/2000/svg"><path d="M6.856 12.712A5.856 5.856 0 106.856 1a5.856 5.856 0 000 11.712zM10.99 10.99L14 14" stroke="#fff" stroke-width="2" stroke-miterlimit="10" stroke-linecap="round" stroke-linejoin="round"/></symbol><symbol fill="none" viewBox="0 0 8 14" id="slider-arrow" xmlns="http://www.w3.org/2000/svg"><path d="M6.504 12.008L1 6.504 6.504 1" stroke-width="2" stroke-linecap="round" stroke-linejoin="round"/></symbol><symbol fill="none" viewBox="0 0 32 30" id="star" xmlns="http://www.w3.org/2000/svg"><path d="M16 1l5.009 8.713L31 11.695l-6.896 7.367L25.271 29 16 24.84 6.73 29l1.166-9.938L1 11.695l9.992-1.982L16 1z" stroke="#fff" stroke-width="2" stroke-miterlimit="10" stroke-linecap="round" stroke-linejoin="round"/><path d="M13 16l2.64 2L19 14" stroke="#fff" stroke-width="2" stroke-linecap="round" stroke-linejoin="round"/></symbol><symbol fill="none" viewBox="0 0 120 89" id="time-limits-1" xmlns="http://www.w3.org/2000/svg"><path d="M6.597 82c-3.312 0-5.709-3.163-4.813-6.352l9.35-33.296a5 5 0 000-2.703L1.783 6.352C.888 3.163 3.285.001 6.597.001h97.689a5 5 0 014.8 3.599l10.505 36a4.999 4.999 0 010 2.8l-10.505 36a5 5 0 01-4.8 3.6H6.597z" fill="#fff"/><rect x="32.45" y="70" width="13.364" height="13.364" rx="2" transform="rotate(45 32.45 70)" fill="#fff"/><path d="M45.639 40.788c0 1.595.27 2.852.757 4.283a2.418 2.418 0 00.986 4.625l.042-.001c.5 6.371 7.743 11.75 12.327 11.75 4.704 0 11.826-5.377 12.326-11.75l.042.001a2.419 2.419 0 00.987-4.625c.488-1.43.757-2.688.757-4.285" stroke="#37455C" stroke-width="2" stroke-linecap="round" stroke-linejoin="round"/><path d="M50.074 41.986l-.348 4.023s-1.32-1.823-3.33-.94M69.468 41.917l.353 4.091s1.32-1.822 3.33-.938" stroke="#37455C" stroke-width="2" stroke-miterlimit="10" stroke-linecap="round" stroke-linejoin="round"/><path d="M54.722 23.494c-5.367 1.5-8.672 5.79-9.757 11.131A2.974 2.974 0 0042 37.59c0 1.631 1.259 2.419 2.965 2.965 15.243 5.37 29.57 0 29.57 0 1.63-.491 2.965-1.334 2.965-2.965a2.974 2.974 0 00-2.965-2.965c-1.083-5.34-4.333-9.631-9.699-11.13" stroke="#37455C" stroke-width="2" stroke-miterlimit="10" stroke-linecap="round" stroke-linejoin="round"/><path d="M61.405 34.163h-3.25a3.432 3.432 0 01-3.433-3.433v-7.297A3.432 3.432 0 0158.154 20h3.251a3.432 3.432 0 013.433 3.433v7.297a3.433 3.433 0 01-3.433 3.433z" stroke="#37455C" stroke-width="2" stroke-miterlimit="10" stroke-linecap="round" stroke-linejoin="round"/><path d="M57.965 54.537h3.658" stroke="#37455C" stroke-width="2" stroke-miterlimit="3.864" stroke-linecap="round" stroke-linejoin="round"/><path d="M62.406 42.996s-1.592.415-1.592 2.521c0 2.65 2.953 5.04 5.264 5.04 2.31 0 3.698-1.403 3.543-4.469-.154-3.066-2.619-3.092-2.619-3.092h-14.56s-2.465.026-2.62 3.092c-.154 3.066 1.234 4.47 3.544 4.47 2.312 0 5.264-2.392 5.264-5.04 0-2.105-1.592-2.522-1.592-2.522" stroke="#37455C" stroke-width="2" stroke-miterlimit="10" stroke-linecap="round" stroke-linejoin="round"/></symbol><symbol fill="none" viewBox="0 0 120 89" id="time-limits-2" xmlns="http://www.w3.org/2000/svg"><rect x="34.45" width="13.364" height="13.364" rx="2" transform="rotate(45 34.45 0)" fill="#fff"/><path d="M6.597 89c-3.312 0-5.709-3.163-4.813-6.352l9.35-33.296a5 5 0 000-2.703l-9.35-33.297c-.896-3.189 1.501-6.351 4.813-6.351h97.689a5 5 0 014.8 3.599l10.505 36a4.999 4.999 0 010 2.8l-10.505 36a5 5 0 01-4.8 3.6H6.597z" fill="#fff"/><path d="M37.983 64.65a5.272 5.272 0 100-10.545 5.272 5.272 0 000 10.544zM66.802 64.65a5.272 5.272 0 100-10.545 5.272 5.272 0 000 10.544z" stroke="#37455C" stroke-width="2" stroke-miterlimit="10" stroke-linecap="round" stroke-linejoin="round"/><path d="M77.345 64.65a5.272 5.272 0 100-10.545 5.272 5.272 0 000 10.544zM43.255 58.206h18.407" stroke="#37455C" stroke-width="2" stroke-miterlimit="10" stroke-linecap="round" stroke-linejoin="round"/><path d="M82.617 58.206l6.91-3.013V51.28H40.72V39.121h-8.78l-3.759 8.685v9.914h4.724M90.175 45.893l-51.112-9.621a1.324 1.324 0 01-1.056-1.548l.253-1.348a1.324 1.324 0 011.548-1.056l51.112 9.621c.72.136 1.192.828 1.057 1.548l-.253 1.348a1.328 1.328 0 01-1.549 1.056zM60.939 40.389v10.89" stroke="#37455C" stroke-width="2" stroke-miterlimit="10" stroke-linecap="round" stroke-linejoin="round"/><path d="M40.72 43.295h3.342l2.788 7.984M60.939 44.334h4.875l2.183 6.945M89.527 51.28v-5.51M83.739 51.279v-6.651M80.517 51.279v-3.993H71.06v3.993M46.85 51.28v6.926M55.683 51.28v6.926" stroke="#37455C" stroke-width="2" stroke-miterlimit="10" stroke-linecap="round" stroke-linejoin="round"/></symbol><symbol fill="none" viewBox="0 0 120 89" id="time-limits-3" xmlns="http://www.w3.org/2000/svg"><rect x="33.45" y="70" width="13.364" height="13.364" rx="2" transform="rotate(45 33.45 70)" fill="#fff"/><path d="M6.597 82c-3.312 0-5.709-3.163-4.813-6.352l9.35-33.296a5 5 0 000-2.703L1.783 6.352C.888 3.163 3.285.001 6.597.001h97.689a5 5 0 014.8 3.599l10.505 36a4.999 4.999 0 010 2.8l-10.505 36a5 5 0 01-4.8 3.6H6.597z" fill="#fff"/><path d="M73.708 51.466a17.406 17.406 0 002.306-3.594 17.278 17.278 0 001.71-7.51c0-2.013-.36-3.937-.989-5.736C74.365 27.86 67.939 23 60.363 23c-7.589 0-14.023 4.876-16.385 11.66A17.294 17.294 0 0043 40.364c0 2.675.61 5.207 1.69 7.47a17.458 17.458 0 002.327 3.635" stroke="#37455C" stroke-width="2" stroke-linecap="round" stroke-linejoin="round"/><path d="M67.027 53.967c0 .825-.668 1.493-1.493 1.493H55.192a1.493 1.493 0 01-1.493-1.493v-2.938c0-.825.668-1.493 1.493-1.493h10.342c.825 0 1.493.668 1.493 1.493v2.938zM77.725 40.978H73.2M47.711 40.978H43M49.397 46.58l-4.071 2.35M68.993 25.3l-2.236 3.872M60.363 23v4.505M51.733 25.3l2.281 3.953M45.389 31.602l4.008 2.315M71.469 46.66l3.984 2.285M62.968 42.09a2.834 2.834 0 11-5.212-2.225 2.834 2.834 0 015.212 2.224zM62.742 39.44l10.027-6.473" stroke="#37455C" stroke-width="2" stroke-miterlimit="10" stroke-linecap="round" stroke-linejoin="round"/></symbol><symbol fill="none" viewBox="0 0 120 89" id="time-limits-4" xmlns="http://www.w3.org/2000/svg"><rect x="34.45" width="13.364" height="13.364" rx="2" transform="rotate(45 34.45 0)" fill="#fff"/><path d="M6.597 89c-3.312 0-5.709-3.163-4.813-6.352l9.35-33.296a5 5 0 000-2.703l-9.35-33.297c-.896-3.189 1.501-6.351 4.813-6.351h97.689a5 5 0 014.8 3.599l10.505 36a4.999 4.999 0 010 2.8l-10.505 36a5 5 0 01-4.8 3.6H6.597z" fill="#fff"/><path d="M50.608 41.604s.854-4.833 2.985-4.909c2.131-.076 4.782 2.532 5.702 1.074.922-1.458 2.593-2.072 5.99-2.454 3.4-.384 1.96-2.992 4.09-2.148 2.132.845 6.106 7.057 6.278 8.438M73.046 60.022c0 1.856 1.669 3.359 3.727 3.359s3.727-1.505 3.727-3.359-1.669-3.358-3.727-3.358c-2.06 0-3.727 1.504-3.727 3.358z" stroke="#37455C" stroke-width="2" stroke-miterlimit="10" stroke-linecap="round" stroke-linejoin="round"/><path d="M40 41.605h4.175l7.541 21.778h2.548l3.626-7.322" stroke="#37455C" stroke-width="2" stroke-linecap="round" stroke-linejoin="round"/><path d="M47.585 51.452s22.57 15.836 31.612-7.166H45.104" stroke="#37455C" stroke-width="2" stroke-miterlimit="10" stroke-linecap="round" stroke-linejoin="round"/></symbol><symbol fill="none" viewBox="0 0 120 89" id="time-limits-5" xmlns="http://www.w3.org/2000/svg"><rect x="33.45" y="70" width="13.364" height="13.364" rx="2" transform="rotate(45 33.45 70)" fill="#fff"/><path d="M6.597 82c-3.312 0-5.709-3.163-4.813-6.352l9.35-33.296a5 5 0 000-2.703L1.783 6.352C.888 3.163 3.285.001 6.597.001h97.689a5 5 0 014.8 3.599l10.505 36a4.999 4.999 0 010 2.8l-10.505 36a5 5 0 01-4.8 3.6H6.597z" fill="#fff"/><path d="M70.262 46.779c-8.858 0-16.039-7.181-16.039-16.04 0-2.026.391-3.956 1.077-5.739C49.28 27.31 45 33.129 45 39.96 45 48.82 52.18 56 61.04 56c6.831 0 12.65-4.28 14.963-10.3a15.93 15.93 0 01-5.74 1.078zM66.992 28.38h8.482l-8.482 7.397h8.482" stroke="#37455C" stroke-width="2" stroke-miterlimit="10" stroke-linecap="round" stroke-linejoin="round"/></symbol><symbol fill="none" viewBox="0 0 16 15" id="user" xmlns="http://www.w3.org/2000/svg"><path d="M8.079 9.387c2.29 0 4.145-1.877 4.145-4.193S10.368 1 8.08 1c-2.29 0-4.145 1.878-4.145 4.194S5.79 9.387 8.079 9.387z" stroke="#fff" stroke-width="2" stroke-miterlimit="10"/><path d="M1.732 14C2.755 11.615 5.2 9.806 8.038 9.806s5.284 1.81 6.306 4.194" stroke="#fff" stroke-width="2" stroke-miterlimit="10" stroke-linecap="round" stroke-linejoin="round"/></symbol><symbol fill="none" viewBox="0 0 35 39" id="work-1-1" xmlns="http://www.w3.org/2000/svg"><path d="M20.236 23.442V35.41a2.462 2.462 0 01-2.452 2.458H3.452A2.462 2.462 0 011 35.41V3.458A2.462 2.462 0 013.452 1h14.333a2.462 2.462 0 012.45 2.458v11.969M8.187 4.206h4.809" stroke="#37455C" stroke-width="2" stroke-miterlimit="10" stroke-linecap="round" stroke-linejoin="round"/><path d="M10.591 34.663a1.603 1.603 0 100-3.206 1.603 1.603 0 000 3.206zM28.224 14.626l4.809 4.808-4.809 4.808M33.033 19.435H15.4" stroke="#37455C" stroke-width="2" stroke-miterlimit="10" stroke-linecap="round" stroke-linejoin="round"/></symbol><symbol fill="none" viewBox="0 0 40 26" id="work-1-2" xmlns="http://www.w3.org/2000/svg"><path d="M5.222 6.63h7.037M3.111 15.074h4.222M1 10.852h8.444M6.63 3.111v-1C6.63 1.501 7.122 1 7.725 1h17.514c.602 0 1.094.5 1.094 1.111v18.185c0 .61-.492 1.111-1.095 1.111h-7.35M10.852 21.408H7.725a1.107 1.107 0 01-1.095-1.112v-1.703M29.037 21.407H27.39a1.06 1.06 0 01-1.057-1.055v-7.39M39 12.963v7.389a1.06 1.06 0 01-1.056 1.055h-1.759" stroke="#37455C" stroke-width="2" stroke-miterlimit="10" stroke-linecap="round" stroke-linejoin="round"/><path d="M26.333 3.814h9.5L39 12.963M14.37 24.926a3.519 3.519 0 100-7.037 3.519 3.519 0 000 7.037zM32.667 24.926a3.519 3.519 0 100-7.037 3.519 3.519 0 000 7.037z" stroke="#37455C" stroke-width="2" stroke-miterlimit="10" stroke-linecap="round" stroke-linejoin="round"/><path d="M39 12.963h-6.333V3.814" stroke="#37455C" stroke-width="2" stroke-miterlimit="10" stroke-linecap="round" stroke-linejoin="round"/></symbol><symbol fill="none" viewBox="0 0 34 32" id="work-1-3" xmlns="http://www.w3.org/2000/svg"><path d="M20.091 20.091l4.205 5.569s1.583 2.663 3.85 1.675c1.316-.574 1.519-1.79 1.519-2.472 0-1.085-.71-2.045-.71-2.045L19.41 9.182s-1.387 1.275-3.665 2.358c-4.9 2.33-6.563.37-6.563-1.676 0-.975 2.314-1.547 5.682-4.915C17.984 1.83 18.369 1 20.09 1h2.015c3.424 0 4.163.648 6.098 1.938 3.12 2.08 4.16 2.835 4.16 2.835v15.682h-4.09" stroke="#37455C" stroke-width="2" stroke-miterlimit="10" stroke-linecap="round" stroke-linejoin="round"/><path d="M24.779 26.398c.053.553.34 1.96-.959 2.813-2.186 1.434-3.729-.938-3.729-.938l-4.773-6.818M19.814 28.156c-.132.5-.355 1.322-1.278 1.779-2.067 1.023-3.217-.298-3.217-.298l-4.773-6.819" stroke="#37455C" stroke-width="2" stroke-miterlimit="10" stroke-linecap="round" stroke-linejoin="round"/><path d="M15.319 3.727c-6.24 0-7.5 2.045-10.228 2.045h-4.09v15.682h1.363c1.82 0 3.569 2.889 3.569 2.889l3.964 5.633s1.149 1.82 3.315.607c.806-.451 1.21-.984 1.38-1.493" stroke="#37455C" stroke-width="2" stroke-miterlimit="10" stroke-linecap="round" stroke-linejoin="round"/></symbol><symbol fill="none" viewBox="0 0 30 43" id="work-1-4" xmlns="http://www.w3.org/2000/svg"><path d="M6.643 41.779a5.574 5.574 0 100-11.148 5.574 5.574 0 000 11.148z" stroke="#37455C" stroke-width="2" stroke-miterlimit="10" stroke-linecap="round" stroke-linejoin="round"/><path d="M6.643 38.04a1.834 1.834 0 100-3.668 1.834 1.834 0 000 3.668z" stroke="#37455C" stroke-width="2" stroke-miterlimit="10" stroke-linecap="round" stroke-linejoin="round"/><path d="M12.217 34.967l5.438-3.186v-4.138H1V36.5M21.118 40.38V2.4a1.4 1.4 0 011.4-1.4h1.45a1.4 1.4 0 011.4 1.4v39.38h-2.85a1.4 1.4 0 01-1.4-1.4zM17.655 31.781h3.463M13.403 27.642l7.715-5.42M10 27.5V23H1v4.5M1 22.934L4.66 18h3.657v4.934M25.37 24.127l3.588 5.786v11.866H25.37" stroke="#37455C" stroke-width="2" stroke-miterlimit="10" stroke-linecap="round" stroke-linejoin="round"/></symbol><symbol fill="none" viewBox="0 0 30 40" id="work-1-5" xmlns="http://www.w3.org/2000/svg"><path d="M8.233 15.522v9.097c0 .345.239.627.53.627h11.662c.292 0 .53-.282.53-.627v-9.101" stroke="#37455C" stroke-width="2" stroke-miterlimit="10" stroke-linecap="round" stroke-linejoin="round"/><path d="M5.988 17.299l8.606-7.11L23.2 17.3" stroke="#37455C" stroke-width="2" stroke-miterlimit="10" stroke-linecap="round" stroke-linejoin="round"/><path d="M14.594 1C10.442 3.768 5.159 6.174 1 6.174V24.13c0 6.392 13.594 14.203 13.594 14.203M14.594 1c4.152 2.768 9.435 5.174 13.594 5.174V24.13c0 6.392-13.594 14.203-13.594 14.203" stroke="#37455C" stroke-width="2" stroke-miterlimit="10" stroke-linecap="round" stroke-linejoin="round"/></symbol><symbol fill="none" viewBox="0 0 34 32" id="work-1-6" xmlns="http://www.w3.org/2000/svg"><path d="M28.87 26.835a15.803 15.803 0 002.093-3.261 15.681 15.681 0 001.552-6.817 15.71 15.71 0 00-.898-5.206C29.466 5.411 23.634 1 16.758 1 9.871 1 4.031 5.426 1.888 11.583A15.697 15.697 0 001 16.758c0 2.428.553 4.726 1.534 6.78a15.844 15.844 0 002.111 3.299" stroke="#37455C" stroke-width="2" stroke-linecap="round" stroke-linejoin="round"/><path d="M22.806 29.105c0 .749-.606 1.355-1.355 1.355h-9.386a1.355 1.355 0 01-1.355-1.355V26.44c0-.749.606-1.355 1.355-1.355h9.386c.75 0 1.355.606 1.355 1.355v2.666zM32.516 17.317H28.41M5.276 17.317H1M6.806 22.4L3.11 24.531M24.59 3.087L22.563 6.6M16.758 1v4.089M8.925 3.087l2.071 3.587M3.168 8.808l3.638 2.1M26.838 22.474l3.615 2.074M19.123 18.325a2.572 2.572 0 11-4.73-2.018 2.572 2.572 0 014.73 2.018zM18.918 15.921l9.1-5.875" stroke="#37455C" stroke-width="2" stroke-miterlimit="10" stroke-linecap="round" stroke-linejoin="round"/></symbol><symbol fill="none" viewBox="0 0 14 43" id="work-1-7" xmlns="http://www.w3.org/2000/svg"><path d="M12.56 1H1v40.542h11.56V1zM9.612 7.111l2.95.001M7.347 12.776h5.215M9.612 18.44h2.95M7.347 24.102h5.215M9.612 29.766h2.948M7.347 35.43h5.215" stroke="#37455C" stroke-width="2" stroke-miterlimit="10" stroke-linecap="round" stroke-linejoin="round"/></symbol><symbol fill="none" viewBox="0 0 27 36" id="work-1-8" xmlns="http://www.w3.org/2000/svg"><path d="M17.249 4.17H15.58v-.91c0-1.063-.901-1.923-2.012-1.923h-1.013c-1.112 0-2.012.861-2.012 1.923v.91H8.807c-2.656 0-2.696 3.987 0 3.987h8.44c2.69 0 2.683-3.986.002-3.986z" stroke="#37455C" stroke-width="2" stroke-linecap="round" stroke-linejoin="round"/><path d="M22.422 5.815h2.649v28.67H1V5.815h2.676" stroke="#37455C" stroke-width="2" stroke-linecap="round" stroke-linejoin="round"/><path d="M6.724 23.11l3.661 4.037 9.456-11.449" stroke="#37455C" stroke-width="2" stroke-linecap="round" stroke-linejoin="round"/></symbol><symbol fill="none" viewBox="0 0 35 25" id="work-1-9" xmlns="http://www.w3.org/2000/svg"><path d="M5.906 20.356h4.689M5.906 15.87h8.815M33.13 21.862a1.84 1.84 0 01-1.836 1.846H2.837A1.842 1.842 0 011 21.862V3.212c0-1.019.822-1.846 1.837-1.846h28.457c1.014 0 1.836.827 1.836 1.847v18.649z" stroke="#fff" stroke-width="2" stroke-linecap="round" stroke-linejoin="round"/><path d="M33.13 5.818H1v5.565h32.13V5.818z" stroke="#fff" stroke-width="2" stroke-miterlimit="10" stroke-linecap="round" stroke-linejoin="round"/><path d="M26.039 15.852c-.694 0-1.306.32-1.719.813a2.238 2.238 0 00-1.718-.813 2.252 2.252 0 000 4.503c.693 0 1.305-.319 1.718-.812a2.238 2.238 0 001.719.812 2.252 2.252 0 000-4.503z" stroke="#fff" stroke-width="2" stroke-linecap="round" stroke-linejoin="round"/></symbol><symbol fill="none" viewBox="0 0 32 32" id="work-2-1" xmlns="http://www.w3.org/2000/svg"><path d="M24.478 7.521V31H1V7.52" stroke="#005AFF" stroke-width="2" stroke-miterlimit="10" stroke-linecap="round" stroke-linejoin="round"/><path d="M1 7.522L7 1h24v24.157L24.478 31M24.478 7.522L31 1M12.74 7.522L19.26 1M8.826 13.392h7.826M1.326 7.521h23.152" stroke="#005AFF" stroke-width="2" stroke-miterlimit="10" stroke-linecap="round" stroke-linejoin="round"/></symbol><symbol fill="none" viewBox="0 0 35 26" id="work-2-2" xmlns="http://www.w3.org/2000/svg"><path d="M1.63 3.111v-1C1.63 1.501 2.122 1 2.725 1h17.514c.602 0 1.094.5 1.094 1.111v18.185c0 .61-.492 1.111-1.095 1.111h-7.35M5.852 21.408H2.725a1.107 1.107 0 01-1.095-1.112v-1.703M24.037 21.407H22.39a1.06 1.06 0 01-1.057-1.055v-7.39M34 12.963v7.389a1.06 1.06 0 01-1.056 1.055h-1.759" stroke="#005AFF" stroke-width="2" stroke-miterlimit="10" stroke-linecap="round" stroke-linejoin="round"/><path d="M21.333 3.814h9.5L34 12.963M9.37 24.926a3.519 3.519 0 100-7.037 3.519 3.519 0 000 7.037zM27.667 24.926a3.519 3.519 0 100-7.037 3.519 3.519 0 000 7.037z" stroke="#005AFF" stroke-width="2" stroke-miterlimit="10" stroke-linecap="round" stroke-linejoin="round"/><path d="M34 12.963h-6.333V3.814" stroke="#005AFF" stroke-width="2" stroke-miterlimit="10" stroke-linecap="round" stroke-linejoin="round"/></symbol><symbol fill="none" viewBox="0 0 25 35" id="work-2-3" xmlns="http://www.w3.org/2000/svg"><path d="M24 21.388c0 1.428-5.148 2.586-11.5 2.586S1 22.817 1 21.388M24 2.19C24 .761 1 5.66 1 7.088v14.3M24 2.19v19.198M1 7.088c0 3.12 23-.41 23-4.899M21.792 31.73c0 1.155-4.16 2.09-9.292 2.09s-9.292-.935-9.292-2.09M3.208 22.911v8.819M21.792 22.907v8.823M6.476 30.3v-2.346M9.762 26.654v-2.347M15.238 26.654v-2.347M18.524 30.3v-2.346M12.5 30.3v-2.346" stroke="#005AFF" stroke-width="2" stroke-miterlimit="10" stroke-linecap="round" stroke-linejoin="round"/></symbol><symbol fill="none" viewBox="0 0 34 30" id="work-2-4" xmlns="http://www.w3.org/2000/svg"><path d="M8.37 9.671v14.792c0 .561.387 1.02.862 1.02h18.962c.474 0 .862-.459.862-1.02V9.664" stroke="#005AFF" stroke-width="2" stroke-miterlimit="10" stroke-linecap="round" stroke-linejoin="round"/><path d="M4.719 12.56L18.713 1l13.993 11.56M8.37 17.573H5.184v7.91H1M1 28.928h17.713v-3.445" stroke="#005AFF" stroke-width="2" stroke-miterlimit="10" stroke-linecap="round" stroke-linejoin="round"/></symbol><symbol fill="none" viewBox="0 0 36 27" id="work-2-5" xmlns="http://www.w3.org/2000/svg"><path d="M11.453 9.395h-7.16V6.67c0-.643.521-1.165 1.164-1.165h4.83c.644 0 1.165.522 1.165 1.165v2.724h.001zM8.158 26h-.572A2.391 2.391 0 015.2 23.76L4.292 9.396h7.161l-.908 14.364A2.392 2.392 0 018.158 26zM21.237 9.395h-7.16V6.67c0-.643.521-1.165 1.164-1.165h4.83c.644 0 1.165.522 1.165 1.165v2.724h.001zM17.943 26h-.572a2.392 2.392 0 01-2.387-2.24l-.908-14.364h7.161l-.908 14.364A2.392 2.392 0 0117.943 26zM31.021 9.395h-7.16V6.67c0-.643.521-1.165 1.164-1.165h4.83c.644 0 1.165.522 1.165 1.165v2.724h.001zM27.727 26h-.572a2.391 2.391 0 01-2.387-2.24L23.86 9.396h7.161l-.908 14.364A2.392 2.392 0 0127.727 26z" stroke="#005AFF" stroke-width="2" stroke-miterlimit="10" stroke-linecap="round" stroke-linejoin="round"/><path d="M33.148 9.395H2.165c-.704 0-1.247-.62-1.155-1.318l.802-6.065A1.165 1.165 0 012.967 1h29.378c.585 0 1.079.433 1.155 1.012l.803 6.065a1.165 1.165 0 01-1.155 1.318zM7.872 20v2.593M17.656 19.981v2.593M27.44 19.981v2.593" stroke="#005AFF" stroke-width="2" stroke-miterlimit="10" stroke-linecap="round" stroke-linejoin="round"/></symbol><symbol fill="none" viewBox="0 0 26 38" id="work-2-6" xmlns="http://www.w3.org/2000/svg"><path d="M13.167 32.555a8.312 8.312 0 01-8.313-8.313M13.167 36.075c-6.535 0-11.833-5.298-11.833-11.833S7.25 8.684 13.167 1.925M13.167 36.075C19.702 36.075 25 30.777 25 24.242S19.083 8.684 13.167 1.925" stroke="#fff" stroke-width="2" stroke-miterlimit="10" stroke-linecap="round" stroke-linejoin="round"/></symbol></svg>